<svg xmlns="http://www.w3.org/2000/svg" version="1.1" xmlns:xlink="http://www.w3.org/1999/xlink" viewBox="0 0 200 200"><rect width="200" height="200" fill="url('#gradient')"></rect><defs><linearGradient id="gradient" gradientTransform="rotate(45 0.5 0.5)"><stop offset="0%" stop-color="#000000"></stop><stop offset="100%" stop-color="#000000"></stop></linearGradient></defs><g><g fill="#5bab32" transform="matrix(4.079681274900398,0,0,4.079681274900398,55.62955878407832,128.60028372342842)" stroke="#5ed03e" stroke-width="0.2"><path d="M12.95-14.22L12.95 0L9.54 0L4.50-8.85L4.50 0L1.07 0L1.07-14.22L4.50-14.22L9.53-5.37L9.53-14.22L12.95-14.22ZM15.51-13.19L18.80-13.19L18.80-10.57L20.54-10.57L20.54-8.28L18.80-8.28L18.80-3.45Q18.80-2.85 19.01-2.62Q19.23-2.38 19.86-2.38L19.86-2.38Q20.35-2.38 20.68-2.44L20.68-2.44L20.68-0.09Q19.79 0.20 18.83 0.20L18.83 0.20Q17.13 0.20 16.32-0.61Q15.51-1.41 15.51-3.04L15.51-3.04L15.51-8.28L14.16-8.28L14.16-10.57L15.51-10.57L15.51-13.19Z"></path></g></g></svg>